<svg xmlns="http://www.w3.org/2000/svg" version="1.1" xmlns:xlink="http://www.w3.org/1999/xlink" xmlns:svgjs="http://svgjs.dev/svgjs" width="2000" height="2185" viewBox="0 0 2000 2185"><g transform="matrix(1,0,0,1,-1.5584075542579967,0.8846153846152447)"><svg viewBox="0 0 226 247" data-background-color="#ffffff" preserveAspectRatio="xMidYMid meet" height="2185" width="2000" xmlns="http://www.w3.org/2000/svg" xmlns:xlink="http://www.w3.org/1999/xlink"><g id="tight-bounds" transform="matrix(1,0,0,1,0.17610005363115988,-0.09999999999999432)"><svg viewBox="0 0 225.64779989273765 247.2" height="247.2" width="225.64779989273765"><g><svg viewBox="0 0 279.21768845641213 305.88648601597345" height="247.2" width="225.64779989273765"><g><svg viewBox="0 0 279.21768845641213 305.88648601597345" height="305.88648601597345" width="279.21768845641213"><g id="textblocktransform"><svg viewBox="0 0 279.21768845641213 305.88648601597345" height="305.88648601597345" width="279.21768845641213" id="textblock"><g><svg viewBox="0 0 279.21768845641213 245.67230400000003" height="245.67230400000003" width="279.21768845641213"><path d="M278.564 52.692C277.251 27.191 273.51 20.102 273.51 20.102 262.024-6.164 247.69-0.502 234.813 3.272 212.078 3.425 189.434 9.035 166.751 12.044 119.141 12.503 71.124 4.955 23.75 23.57 19.3 29.282-4.617 24.692 0.792 55.956 2.209 68.961 7.381 83.395 7.224 95.329 7.932 97.42 8.917 92.626 9.337 95.635 10.807 103.744 13.209 99.919 15.178 104.713 12.435 117.515 14.404 128.174 16.281 139.343 12.973 142.25 8.733 140.873 6.83 150.513 6.633 157.5 5.57 156.174 4.401 155.868 3.548 155.664 1.829 156.429 2.117 158.622 3.102 166.119-1.125 170.454 1.527 177.798-0.298 185.755 2.787 192.64 2.367 201.259 2.314 202.993 2.603 204.472 3.062 204.88 5.097 207.073 2.13 211.357 2.445 215.998 23.317 247.721 45.96 225.791 67.343 240.377 72.896 230.177 68.722 243.998 70.94 241.856 72.673 239.357 73.933 249.71 75.889 243.845 76.191 242.162 75.731 238.184 76.808 238.949 77.372 239.357 77.871 239.255 77.95 236.909 78.068 233.39 77.031 235.583 76.755 233.747 79.735 224.465 79 246.548 81.796 245.63 81.665 242.927 80.851 239.051 82.518 239.561 84.172 235.685 84.224 232.472 85.695 241.193 85.747 243.08 86.01 244.406 86.43 245.324 91.024 235.838 95.592 248.69 100.409 244.406 103.363 239.714 106.198 246.956 109.191 245.171 110.241 243.743 111.305 241.193 112.315 245.477 124.694 246.395 137.886 242.57 149.621 245.63 180.981 239.918 214.493 247.976 247.559 240.428 255.356 237.521 263.455 233.39 271.056 230.075 271.056 230.075 277.212 220.997 277.212 180.196S278.525 144.495 278.721 112.007C278.918 79.519 279.837 78.193 278.525 52.692Z" opacity="1" fill="#ffffff" data-fill-palette-color="tertiary"></path><g transform="matrix(1,0,0,1,55.76831999999999,26.068561146666667)"><svg width="167.68104845641216" viewBox="1.0063107013702393 -39.04999923706055 33.83192443847656 39.04999923706055" height="193.5351817066667" data-palette-color="#ffffff"><path d="M17.95 0L17.95 0Q16.7 0 16.15-1.25L16.15-1.25 1.3-36Q0.75-37.4 1.23-38.23 1.7-39.05 2.9-39.05L2.9-39.05Q4.15-39.05 4.7-37.8L4.7-37.8 18.5-4.8 17.4-4.8 31.15-37.7Q31.45-38.45 31.9-38.75 32.35-39.05 33.1-39.05L33.1-39.05Q34.25-39.05 34.65-38.18 35.05-37.3 34.6-36.2L34.6-36.2 19.7-1.25Q19.4-0.55 18.95-0.28 18.5 0 17.95 0Z" opacity="1" transform="matrix(1,0,0,1,0,0)" fill="#000000" class="wordmark-text-0" data-fill-palette-color="quaternary" id="text-0"></path></svg></g></svg></g><g transform="matrix(1,0,0,1,53.33057849517472,291.36131555658307)"><svg viewBox="0 0 172.5565314660627 14.525170459390392" height="14.525170459390392" width="172.5565314660627"><g transform="matrix(1,0,0,1,0,0)"><svg width="172.5565314660627" viewBox="2.1500000953674316 -35.650001525878906 553.5599975585938 46.60000228881836" height="14.525170459390392" data-palette-color="#7c4e29"><path d="M19.35 0L3.55 0 3.55-5.25 18.6-5.25Q20.05-5.25 21.13-5.95 22.2-6.65 22.83-7.78 23.45-8.9 23.45-10.15L23.45-10.15Q23.45-11.5 22.85-12.6 22.25-13.7 21.18-14.35 20.1-15 18.7-15L18.7-15 12.45-15Q9.5-15 7.18-16.23 4.85-17.45 3.5-19.65 2.15-21.85 2.15-24.85L2.15-24.85Q2.15-27.85 3.45-30.13 4.75-32.4 7-33.7 9.25-35 12.1-35L12.1-35 27.15-35 27.15-29.75 12.65-29.75Q11.35-29.75 10.3-29.1 9.25-28.45 8.68-27.4 8.1-26.35 8.1-25.15L8.1-25.15Q8.1-23.9 8.68-22.88 9.25-21.85 10.28-21.23 11.3-20.6 12.6-20.6L12.6-20.6 19-20.6Q22.2-20.6 24.53-19.35 26.85-18.1 28.13-15.9 29.4-13.7 29.4-10.85L29.4-10.85Q29.4-7.5 28.08-5.08 26.75-2.65 24.48-1.33 22.2 0 19.35 0L19.35 0ZM51.4 0.65L51.4 0.65Q47.25 0.65 43.87-0.78 40.5-2.2 38.12-4.7 35.75-7.2 34.45-10.5 33.15-13.8 33.15-17.55L33.15-17.55Q33.15-21.3 34.45-24.58 35.75-27.85 38.12-30.35 40.5-32.85 43.87-34.25 47.25-35.65 51.45-35.65L51.45-35.65Q55.6-35.65 58.95-34.25 62.3-32.85 64.7-30.35 67.1-27.85 68.4-24.58 69.7-21.3 69.7-17.55L69.7-17.55Q69.7-13.8 68.4-10.5 67.1-7.2 64.7-4.7 62.3-2.2 58.95-0.78 55.6 0.65 51.4 0.65ZM51.4-4.65L51.4-4.65Q54.05-4.65 56.3-5.6 58.55-6.55 60.22-8.33 61.9-10.1 62.8-12.43 63.7-14.75 63.7-17.55L63.7-17.55Q63.7-20.3 62.8-22.65 61.9-25 60.22-26.73 58.55-28.45 56.3-29.43 54.05-30.4 51.4-30.4L51.4-30.4Q48.8-30.4 46.55-29.43 44.3-28.45 42.62-26.73 40.95-25 40.02-22.65 39.1-20.3 39.1-17.55L39.1-17.55Q39.1-14.75 40.02-12.43 40.95-10.1 42.62-8.33 44.3-6.55 46.55-5.6 48.8-4.65 51.4-4.65ZM80.65 0L74.65 0 74.65-25.35Q74.7-28.1 75.97-30.28 77.25-32.45 79.42-33.73 81.59-35 84.34-35L84.34-35 96.84-35 96.84-29.75 85-29.75Q83.09-29.75 81.87-28.48 80.65-27.2 80.65-25.35L80.65-25.35 80.65-18.95 95.09-18.95 95.09-13.7 80.65-13.7 80.65 0ZM121.99 0L119.54 0Q116.59 0 114.39-1.33 112.19-2.65 110.97-4.9 109.74-7.15 109.74-9.9L109.74-9.9 109.74-29.75 99.54-29.75 99.54-35 125.89-35 125.89-29.75 115.69-29.75 115.69-9.15Q115.69-7.55 116.79-6.4 117.89-5.25 119.59-5.25L119.59-5.25 121.99-5.25 121.99 0ZM143.64 0.6L143.64 0.6Q139.69 0.6 136.64-1.05 133.59-2.7 131.84-5.78 130.09-8.85 130.09-13.1L130.09-13.1 130.09-35 136.04-35 136.04-12.7Q136.04-10.5 136.97-8.68 137.89-6.85 139.62-5.75 141.34-4.65 143.64-4.65L143.64-4.65Q145.99-4.65 147.72-5.75 149.44-6.85 150.34-8.68 151.24-10.5 151.24-12.7L151.24-12.7 151.24-35 157.24-35 157.24-12.7Q157.24-10.5 158.17-8.68 159.09-6.85 160.79-5.75 162.49-4.65 164.84-4.65L164.84-4.65Q167.19-4.65 168.89-5.75 170.59-6.85 171.52-8.68 172.44-10.5 172.44-12.7L172.44-12.7 172.44-35 178.39-35 178.39-13.1Q178.39-8.85 176.64-5.78 174.89-2.7 171.84-1.05 168.79 0.6 164.84 0.6L164.84 0.6Q162.64 0.6 160.62 0 158.59-0.6 156.99-1.85 155.39-3.1 154.24-4.85L154.24-4.85Q153.14-3.1 151.49-1.88 149.84-0.65 147.87-0.03 145.89 0.6 143.64 0.6ZM187.94 0L181.69 0 193.34-31.4Q194.19-33.55 195.79-34.58 197.39-35.6 199.44-35.6L199.44-35.6Q201.54-35.6 203.16-34.6 204.79-33.6 205.59-31.45L205.59-31.45 217.29 0 210.74 0 208.04-7.75 190.74-7.75 187.94 0ZM198.44-29.4L192.54-13.05 206.24-13.05 200.64-29.4Q200.44-29.9 200.16-30.15 199.89-30.4 199.49-30.4L199.49-30.4Q199.09-30.4 198.84-30.13 198.59-29.85 198.44-29.4L198.44-29.4ZM226.19 0L220.24 0 220.24-35 235.74-35Q239.09-35 241.86-33.52 244.64-32.05 246.29-29.4 247.94-26.75 247.94-23.25L247.94-23.25Q247.94-19.75 246.21-17.07 244.49-14.4 241.64-12.95L241.64-12.95 245.09-6.4Q245.39-5.85 245.79-5.58 246.19-5.3 246.84-5.3L246.84-5.3 249.79-5.3 249.79 0 245.94 0Q243.89 0 242.29-1.03 240.69-2.05 239.74-3.75L239.74-3.75 235.64-11.6Q235.14-11.55 234.61-11.55 234.09-11.55 233.59-11.55L233.59-11.55 226.19-11.55 226.19 0ZM226.19-29.75L226.19-16.8 234.99-16.8Q236.89-16.8 238.49-17.55 240.09-18.3 241.01-19.78 241.94-21.25 241.94-23.25L241.94-23.25Q241.94-25.3 240.99-26.75 240.04-28.2 238.49-28.98 236.94-29.75 235.04-29.75L235.04-29.75 226.19-29.75ZM276.83 0L262.93 0Q260.03 0 257.73-1.38 255.43-2.75 254.11-5.08 252.78-7.4 252.78-10.2L252.78-10.2Q252.78-12.4 253.81-14.38 254.83-16.35 256.68-17.7L256.68-17.7Q254.83-19.05 253.83-20.98 252.83-22.9 252.83-25L252.83-25Q252.83-27.8 254.16-30.05 255.48-32.3 257.73-33.65 259.98-35 262.73-35L262.73-35 276.83-35 276.83-29.7 263.38-29.7Q262.13-29.7 261.08-29.08 260.03-28.45 259.41-27.4 258.78-26.35 258.78-25L258.78-25Q258.78-23.8 259.43-22.75 260.08-21.7 261.13-21.08 262.18-20.45 263.48-20.45L263.48-20.45 275.08-20.45 275.08-15.15 263.78-15.15Q262.28-15.15 261.13-14.45 259.98-13.75 259.36-12.63 258.73-11.5 258.73-10.15L258.73-10.15Q258.73-8.85 259.36-7.73 259.98-6.6 261.11-5.93 262.23-5.25 263.68-5.25L263.68-5.25 276.83-5.25 276.83 0ZM318.43 0L304.53 0Q301.63 0 299.33-1.38 297.03-2.75 295.7-5.08 294.38-7.4 294.38-10.2L294.38-10.2Q294.38-12.4 295.4-14.38 296.43-16.35 298.28-17.7L298.28-17.7Q296.43-19.05 295.43-20.98 294.43-22.9 294.43-25L294.43-25Q294.43-27.8 295.75-30.05 297.08-32.3 299.33-33.65 301.58-35 304.33-35L304.33-35 318.43-35 318.43-29.7 304.98-29.7Q303.73-29.7 302.68-29.08 301.63-28.45 301-27.4 300.38-26.35 300.38-25L300.38-25Q300.38-23.8 301.03-22.75 301.68-21.7 302.73-21.08 303.78-20.45 305.08-20.45L305.08-20.45 316.68-20.45 316.68-15.15 305.38-15.15Q303.88-15.15 302.73-14.45 301.58-13.75 300.95-12.63 300.33-11.5 300.33-10.15L300.33-10.15Q300.33-8.85 300.95-7.73 301.58-6.6 302.7-5.93 303.83-5.25 305.28-5.25L305.28-5.25 318.43-5.25 318.43 0ZM347.68 0.6L347.68 0.6Q344.78 0.6 342.53-0.75 340.28-2.1 339.03-4.4 337.78-6.7 337.78-9.5L337.78-9.5 337.78-26.25Q337.78-27.4 337.23-28.33 336.68-29.25 335.75-29.8 334.83-30.35 333.73-30.35L333.73-30.35Q332.63-30.35 331.73-29.8 330.83-29.25 330.28-28.33 329.73-27.4 329.73-26.25L329.73-26.25 329.73 0 323.78 0 323.78-25.5Q323.78-28.35 325.03-30.63 326.28-32.9 328.53-34.25 330.78-35.6 333.73-35.6L333.73-35.6Q336.73-35.6 338.98-34.25 341.23-32.9 342.48-30.63 343.73-28.35 343.73-25.5L343.73-25.5 343.73-8.75Q343.73-7.6 344.28-6.68 344.83-5.75 345.73-5.2 346.63-4.65 347.68-4.65L347.68-4.65Q348.78-4.65 349.68-5.2 350.58-5.75 351.1-6.68 351.63-7.6 351.63-8.75L351.63-8.75 351.63-35 357.63-35 357.63-9.5Q357.63-6.7 356.38-4.4 355.13-2.1 352.9-0.75 350.68 0.6 347.68 0.6ZM389.92 10.95L389.92 10.95Q387.22 10.95 385.2 9.95 383.17 8.95 382.1 7.03 381.02 5.1 381.02 2.45L381.02 2.45Q381.02 1.8 381.07 1.13 381.12 0.45 381.22-0.25L381.22-0.25Q377.12-0.1 373.72-1.4 370.32-2.7 367.85-5.1 365.37-7.5 364.02-10.78 362.67-14.05 362.67-17.9L362.67-17.9Q362.67-21.55 363.92-24.75 365.17-27.95 367.52-30.4 369.87-32.85 373.17-34.23 376.47-35.6 380.52-35.6L380.52-35.6Q384.62-35.6 387.92-34.27 391.22-32.95 393.57-30.55 395.92-28.15 397.17-25.03 398.42-21.9 398.42-18.3L398.42-18.3 398.42 1.7Q398.42 4.35 397.45 6.45 396.47 8.55 394.57 9.75 392.67 10.95 389.92 10.95ZM389.52 5.6L389.52 5.6Q390.87 5.6 391.65 4.6 392.42 3.6 392.42 1.85L392.42 1.85 392.42-8.55Q390.32-6.95 389.12-5.4 387.92-3.85 387.4-2.45 386.87-1.05 386.75 0.05 386.62 1.15 386.62 1.8L386.62 1.8Q386.62 3 387.02 3.85 387.42 4.7 388.1 5.15 388.77 5.6 389.52 5.6ZM380.52-5.45L380.52-5.45Q381.32-5.45 381.97-5.53 382.62-5.6 383.37-5.75L383.37-5.75Q384.17-7.25 385.37-8.8 386.57-10.35 388.32-11.83 390.07-13.3 392.42-14.65L392.42-14.65 392.42-18.3Q392.42-20.85 391.55-23.05 390.67-25.25 389.05-26.88 387.42-28.5 385.27-29.43 383.12-30.35 380.52-30.35L380.52-30.35Q377.97-30.35 375.8-29.4 373.62-28.45 372.02-26.78 370.42-25.1 369.52-22.83 368.62-20.55 368.62-17.9L368.62-17.9Q368.62-15.25 369.52-12.98 370.42-10.7 372.02-9.03 373.62-7.35 375.8-6.4 377.97-5.45 380.52-5.45ZM422.87 0L403.87 0 403.87-5.25 410.37-5.25 410.37-29.75 403.87-29.75 403.87-35 422.87-35 422.87-29.75 416.37-29.75 416.37-5.25 422.87-5.25 422.87 0ZM452.62 0.6L452.62 0.6Q449.72 0.6 447.47-0.75 445.22-2.1 443.97-4.4 442.72-6.7 442.72-9.5L442.72-9.5 442.72-26.25Q442.72-27.4 442.17-28.33 441.62-29.25 440.69-29.8 439.77-30.35 438.67-30.35L438.67-30.35Q437.57-30.35 436.67-29.8 435.77-29.25 435.22-28.33 434.67-27.4 434.67-26.25L434.67-26.25 434.67 0 428.72 0 428.72-25.5Q428.72-28.35 429.97-30.63 431.22-32.9 433.47-34.25 435.72-35.6 438.67-35.6L438.67-35.6Q441.67-35.6 443.92-34.25 446.17-32.9 447.42-30.63 448.67-28.35 448.67-25.5L448.67-25.5 448.67-8.75Q448.67-7.6 449.22-6.68 449.77-5.75 450.67-5.2 451.57-4.65 452.62-4.65L452.62-4.65Q453.72-4.65 454.62-5.2 455.52-5.75 456.04-6.68 456.57-7.6 456.57-8.75L456.57-8.75 456.57-35 462.57-35 462.57-9.5Q462.57-6.7 461.32-4.4 460.07-2.1 457.84-0.75 455.62 0.6 452.62 0.6ZM492.07 0L478.17 0Q475.27 0 472.97-1.38 470.67-2.75 469.34-5.08 468.02-7.4 468.02-10.2L468.02-10.2Q468.02-12.4 469.04-14.38 470.07-16.35 471.92-17.7L471.92-17.7Q470.07-19.05 469.07-20.98 468.07-22.9 468.07-25L468.07-25Q468.07-27.8 469.39-30.05 470.72-32.3 472.97-33.65 475.22-35 477.97-35L477.97-35 492.07-35 492.07-29.7 478.62-29.7Q477.37-29.7 476.32-29.08 475.27-28.45 474.64-27.4 474.02-26.35 474.02-25L474.02-25Q474.02-23.8 474.67-22.75 475.32-21.7 476.37-21.08 477.42-20.45 478.72-20.45L478.72-20.45 490.32-20.45 490.32-15.15 479.02-15.15Q477.52-15.15 476.37-14.45 475.22-13.75 474.59-12.63 473.97-11.5 473.97-10.15L473.97-10.15Q473.97-8.85 474.59-7.73 475.22-6.6 476.34-5.93 477.47-5.25 478.92-5.25L478.92-5.25 492.07-5.25 492.07 0ZM520.41 0L506.51 0Q503.61 0 501.31-1.38 499.01-2.75 497.69-5.08 496.36-7.4 496.36-10.2L496.36-10.2Q496.36-12.4 497.39-14.38 498.41-16.35 500.26-17.7L500.26-17.7Q498.41-19.05 497.41-20.98 496.41-22.9 496.41-25L496.41-25Q496.41-27.8 497.74-30.05 499.06-32.3 501.31-33.65 503.56-35 506.31-35L506.31-35 520.41-35 520.41-29.7 506.96-29.7Q505.71-29.7 504.66-29.08 503.61-28.45 502.99-27.4 502.36-26.35 502.36-25L502.36-25Q502.36-23.8 503.01-22.75 503.66-21.7 504.71-21.08 505.76-20.45 507.06-20.45L507.06-20.45 518.66-20.45 518.66-15.15 507.36-15.15Q505.86-15.15 504.71-14.45 503.56-13.75 502.94-12.63 502.31-11.5 502.31-10.15L502.31-10.15Q502.31-8.85 502.94-7.73 503.56-6.6 504.69-5.93 505.81-5.25 507.26-5.25L507.26-5.25 520.41-5.25 520.41 0ZM532.11 0L526.16 0 526.16-35 541.66-35Q545.01-35 547.79-33.52 550.56-32.05 552.21-29.4 553.86-26.75 553.86-23.25L553.86-23.25Q553.86-19.75 552.14-17.07 550.41-14.4 547.56-12.95L547.56-12.95 551.01-6.4Q551.31-5.85 551.71-5.58 552.11-5.3 552.76-5.3L552.76-5.3 555.71-5.3 555.71 0 551.86 0Q549.81 0 548.21-1.03 546.61-2.05 545.66-3.75L545.66-3.75 541.56-11.6Q541.06-11.55 540.54-11.55 540.01-11.55 539.51-11.55L539.51-11.55 532.11-11.55 532.11 0ZM532.11-29.75L532.11-16.8 540.91-16.8Q542.81-16.8 544.41-17.55 546.01-18.3 546.94-19.78 547.86-21.25 547.86-23.25L547.86-23.25Q547.86-25.3 546.91-26.75 545.96-28.2 544.41-28.98 542.86-29.75 540.96-29.75L540.96-29.75 532.11-29.75Z" opacity="1" transform="matrix(1,0,0,1,0,0)" fill="#ffffff" class="slogan-text-1" data-fill-palette-color="secondary" id="text-1"></path></svg></g></svg></g></svg></g></svg></g><g></g></svg></g><defs></defs></svg><rect width="225.64779989273765" height="247.2" fill="none" stroke="none" visibility="hidden"></rect></g></svg></g></svg>