<svg xmlns="http://www.w3.org/2000/svg" width="34" height="34" viewBox="0 0 34 34">
    <g fill="none" fill-rule="evenodd">
        <path fill="#6BA9E1" d="M34 0l-.001 16.919L34 17c0 9.28-7.437 16.825-16.677 16.997L17 34C7.611 34 0 26.389 0 17S7.611 0 17 0h17z"/>
        <path fill="#719DE6" d="M8.619 2.155v29.45C3.462 28.641 0 23.156 0 16.88 0 10.605 3.462 5.12 8.619 2.155z"/>
        <path fill="#52D2CE" d="M17 0v34c-3.145 0-6.091-.85-8.62-2.332V2.332A16.988 16.988 0 0 1 16.676.003L17 0z"/>
        <path fill="#49E1C7" d="M17.03 0l13.618 27.265a17.098 17.098 0 0 1-6.082 5.059L9.339 1.834A16.925 16.925 0 0 1 16.707.004L17.03 0z"/>
        <path fill="#56CAD1" d="M34 0v17.034c0 6.345-3.375 11.88-8.38 14.81V0H34z"/>
    </g>
</svg>
