<svg xmlns="http://www.w3.org/2000/svg" version="1.1" xmlns:xlink="http://www.w3.org/1999/xlink" xmlns:svgjs="http://svgjs.dev/svgjs" width="2000" height="1871" viewBox="0 0 2000 1871"><g transform="matrix(1,0,0,1,0.05891259223835732,0.7588886743488956)"><svg viewBox="0 0 264 247" data-background-color="#ffffff" preserveAspectRatio="xMidYMid meet" height="1871" width="2000" xmlns="http://www.w3.org/2000/svg" xmlns:xlink="http://www.w3.org/1999/xlink"><g id="tight-bounds" transform="matrix(1,0,0,1,-0.007526294422632418,-0.09997365579206985)"><svg viewBox="0 0 264.0153027565982 247.2" height="247.2" width="264.0153027565982"><g><svg viewBox="0 0 264.0153027565982 247.2" height="247.2" width="264.0153027565982"><g><svg viewBox="0 0 264.0153027565982 247.2" height="247.2" width="264.0153027565982"><g id="textblocktransform"><svg viewBox="0 0 264.0153027565982 247.2" height="247.2" width="264.0153027565982" id="textblock"><g><svg viewBox="0 0 264.0153027565982 247.2" height="247.2" width="264.0153027565982"><path d="M263.397 53.02C262.156 27.36 258.619 20.227 258.619 20.227 247.758-6.202 234.204-0.506 222.028 3.292 200.531 3.446 179.12 9.091 157.672 12.119 112.654 12.581 67.252 4.986 22.457 23.717 18.249 29.464-4.365 24.846 0.748 56.304 2.089 69.39 6.979 83.913 6.83 95.922 7.501 98.026 8.431 93.202 8.829 96.23 10.219 104.39 12.49 100.541 14.352 105.365 11.758 118.246 13.62 128.971 15.395 140.21 12.267 143.135 8.258 141.749 6.458 151.449 6.272 158.479 5.266 157.145 4.162 156.837 3.355 156.632 1.729 157.402 2.002 159.608 2.933 167.152-1.064 171.514 1.443 178.904-0.282 186.91 2.635 193.838 2.238 202.511 2.188 204.255 2.461 205.744 2.896 206.154 4.82 208.361 2.014 212.672 2.312 217.342 22.047 249.262 43.458 227.195 63.677 241.872 68.927 231.608 64.98 245.516 67.078 243.36 68.716 240.846 69.908 251.263 71.757 245.362 72.043 243.668 71.608 239.665 72.626 240.435 73.16 240.846 73.631 240.743 73.706 238.382 73.817 234.841 72.837 237.048 72.576 235.201 75.394 225.861 74.699 248.081 77.342 247.158 77.218 244.438 76.449 240.538 78.025 241.051 79.589 237.151 79.639 233.918 81.029 242.693 81.078 244.592 81.327 245.926 81.724 246.85 86.068 237.305 90.387 250.237 94.943 245.926 97.735 241.205 100.416 248.492 103.246 246.696 104.239 245.259 105.244 242.693 106.2 247.004 117.905 247.928 130.379 244.079 141.475 247.158 171.127 241.41 202.815 249.518 234.08 241.923 241.453 238.998 249.111 234.841 256.298 231.506 256.298 231.506 262.119 222.371 262.119 181.316S263.36 145.393 263.546 112.703C263.732 80.013 264.601 78.679 263.36 53.02Z" opacity="1" fill="#915fff" data-fill-palette-color="tertiary"></path><g transform="matrix(1,0,0,1,55.76831999999999,26.230666666666668)"><svg width="152.47866275659823" viewBox="3.25 -33.05 26.7 34.1" height="194.73866666666666" data-palette-color="#ffffff"><path d="M8.55 1.05Q6.55 0.6 5.75 0.1 4.95-0.4 4.73-1.23 4.5-2.05 4.4-4L4.4-4Q4.3-6.95 3.9-13.2L3.9-13.2Q3.85-14.2 3.55-19.65 3.25-25.1 3.25-30.1L3.25-30.1Q3.25-31.3 4.33-32.13 5.4-32.95 7.05-32.95L7.05-32.95Q8.55-32.95 9.25-32.13 9.95-31.3 9.95-29.6L9.95-29.6 10-9.7 10-4.75Q14-13.6 19.15-23.33 24.3-33.05 25.75-33.05L25.75-33.05Q27.6-33.05 28.75-32.2 29.9-31.35 29.95-30.2L29.95-30.2Q29.65-29.55 27.5-25.6L27.5-25.6 25.15-21.45 23.45-18.3Q18.4-9.05 16.4-5.55 14.4-2.05 13.05-0.6L13.05-0.6Q12.45 0.1 11.23 0.58 10 1.05 8.55 1.05L8.55 1.05Z" opacity="1" transform="matrix(1,0,0,1,0,0)" fill="#ffffff" class="wordmark-text-0" data-fill-palette-color="quaternary" id="text-0"></path></svg></g></svg></g></svg></g></svg></g><g></g></svg></g><defs></defs></svg><rect width="264.0153027565982" height="247.2" fill="none" stroke="none" visibility="hidden"></rect></g></svg></g></svg>